<?xml version="1.0" standalone="no"?>
<!DOCTYPE svg PUBLIC "-//W3C//DTD SVG 20010904//EN"
 "http://www.w3.org/TR/2001/REC-SVG-20010904/DTD/svg10.dtd">
<svg version="1.0" xmlns="http://www.w3.org/2000/svg"
 width="479.000000pt" height="479.000000pt" viewBox="0 0 479.000000 479.000000"
 preserveAspectRatio="xMidYMid meet">

<g transform="translate(0.000000,479.000000) scale(0.100000,-0.100000)"
fill="#000000" stroke="none">
<path d="M0 2395 l0 -2395 2395 0 2395 0 0 2395 0 2395 -2395 0 -2395 0 0
-2395z m2440 1566 c-55 -50 -55 -50 -35 -69 11 -11 108 -95 215 -187 107 -92
206 -177 220 -189 14 -12 86 -73 160 -136 74 -63 197 -167 273 -232 l138 -118
-73 0 -73 0 -207 173 c-113 94 -312 261 -441 370 -129 108 -239 197 -246 197
-6 0 -57 -39 -113 -88 -118 -100 -187 -158 -531 -445 l-248 -207 -70 0 c-38 0
-69 2 -69 4 0 3 55 51 123 108 67 56 277 233 466 393 189 159 363 306 387 325
24 19 43 40 44 45 0 6 -24 31 -52 57 l-53 46 60 61 60 61 60 -60 60 -60 -55
-49z m720 -221 l0 -40 -155 0 -155 0 0 40 0 40 155 0 155 0 0 -40z m-50 -241
l0 -151 -51 43 c-134 112 -138 118 -145 192 l-7 67 102 0 101 0 0 -151z m-653
4 c58 -27 73 -66 73 -187 l0 -106 -150 0 -150 0 0 100 c0 113 10 144 62 184
50 38 98 40 165 9z m191 -526 c42 -16 91 -63 108 -104 21 -50 18 -139 -8 -192
-14 -29 -76 -101 -170 -197 -81 -83 -148 -153 -148 -157 0 -4 53 -7 118 -7
134 0 148 6 177 69 10 23 24 41 32 41 15 0 16 -16 6 -112 l-6 -68 -203 0 -204
0 0 31 c0 27 18 51 118 153 146 151 184 215 190 327 7 121 -33 179 -124 179
-52 0 -104 -53 -104 -106 0 -21 7 -45 16 -56 23 -25 3 -48 -42 -48 -39 0 -54
21 -54 72 1 73 64 156 137 178 40 12 123 10 161 -3z m508 -12 c117 -68 113
-225 -7 -294 l-50 -28 30 -6 c58 -12 139 -105 128 -148 -3 -11 -1 -17 4 -13
12 7 11 -42 -1 -86 -12 -44 -68 -113 -86 -106 -8 3 -13 0 -11 -7 1 -7 -6 -11
-15 -11 -10 1 -15 -2 -12 -7 5 -9 -16 -13 -53 -10 -13 1 -23 -4 -23 -10 0 -18
-96 -3 -149 23 -53 27 -80 60 -86 107 -7 62 19 94 68 83 16 -4 18 -13 15 -52
-1 -27 -1 -47 2 -45 3 2 11 -9 18 -24 15 -35 50 -51 108 -51 37 0 50 5 72 29
45 48 47 54 51 124 2 58 -1 73 -24 112 -14 25 -30 45 -36 45 -6 0 -8 3 -6 8 3
4 -14 8 -37 9 -100 6 -118 33 -32 52 80 18 116 66 116 157 0 81 -44 134 -111
134 -68 0 -119 -70 -105 -145 7 -35 7 -35 -26 -29 -45 9 -52 18 -51 65 4 95
73 149 192 149 61 0 82 -4 117 -25z m-1715 -145 c18 -10 19 -25 19 -325 l0
-315 793 -2 c435 -1 829 -2 874 -2 45 0 80 -3 78 -7 -3 -4 4 -9 15 -12 11 -3
20 -12 20 -20 0 -15 -23 -13 -105 9 -16 4 -17 3 -5 -5 11 -8 12 -11 2 -11 -10
0 -10 -3 2 -15 18 -18 43 -20 48 -3 3 7 11 9 24 3 18 -7 17 -8 -6 -15 l-25 -8
25 -2 25 -3 -24 -4 c-19 -4 -21 -7 -10 -14 12 -8 12 -10 -1 -8 -8 1 -22 1 -30
0 -12 -1 -12 -4 3 -12 9 -5 21 -7 27 -4 6 4 7 -21 4 -67 -7 -84 -17 -107 -14
-33 1 28 1 58 1 68 -1 16 -49 17 -861 17 l-860 0 0 -75 0 -75 -60 0 -60 0 0
457 c0 411 2 458 17 475 18 20 54 23 84 8z m425 -174 c34 -28 38 -84 9 -116
-17 -18 -30 -20 -170 -20 -140 0 -153 2 -170 20 -29 32 -25 88 9 116 26 23 35
24 161 24 126 0 135 -1 161 -24z m424 -229 c-16 -29 -35 -83 -42 -120 l-13
-67 -368 0 -369 0 4 91 c3 88 4 92 36 120 l32 29 374 0 374 0 -28 -53z m988
-250 c14 -11 17 -97 3 -97 -5 0 -8 11 -5 25 3 17 0 25 -9 25 -16 0 -19 30 -3
30 6 1 -2 7 -19 14 -29 13 -29 14 -5 13 14 0 31 -5 38 -10z m-105 -44 c-7 -2
-19 -2 -25 0 -7 3 -2 5 12 5 14 0 19 -2 13 -5z m114 -210 c-2 -16 -4 -3 -4 27
0 30 2 43 4 28 2 -16 2 -40 0 -55z m-1819 -215 c30 -9 32 -13 32 -54 0 -24 -3
-44 -7 -44 -5 1 -17 15 -28 33 -28 44 -89 66 -131 46 -17 -9 -30 -23 -32 -38
-7 -50 6 -67 80 -106 106 -54 138 -88 138 -142 0 -24 -7 -58 -16 -74 -29 -57
-134 -84 -227 -58 -41 11 -43 14 -51 76 -6 48 7 65 25 31 46 -90 158 -119 192
-50 27 55 9 80 -95 133 -86 43 -118 80 -118 136 0 68 41 110 118 122 49 7 65
6 120 -11z m472 -43 c0 -30 -3 -55 -7 -55 -5 0 -21 16 -36 35 -23 29 -34 35
-67 35 l-40 0 0 -185 c0 -177 1 -185 22 -205 12 -11 20 -20 17 -20 -75 -8
-142 -9 -150 -4 -6 4 -3 14 10 25 20 19 21 30 21 204 0 141 -3 185 -12 186
-50 5 -91 -14 -107 -47 -18 -40 -31 -27 -31 31 l0 55 190 0 190 0 0 -55z m200
48 c0 -3 -8 -15 -17 -25 -20 -23 -30 -167 -18 -274 9 -86 33 -114 100 -114 46
0 56 -19 12 -21 -18 -1 -18 -2 -4 -6 10 -3 24 1 32 7 8 6 20 8 27 4 10 -6 11
-5 1 7 -11 13 -9 18 12 29 37 20 45 60 45 216 0 133 -2 145 -20 156 -33 21
-23 28 40 27 63 -1 72 -7 41 -26 -18 -11 -20 -27 -23 -165 -3 -171 -16 -216
-70 -244 -65 -34 -179 -27 -225 13 -41 37 -47 63 -51 226 -4 140 -6 159 -23
171 -10 7 -16 16 -12 19 8 9 153 9 153 0z m520 -3 c0 -5 13 -7 30 -3 53 10
129 -29 163 -84 8 -12 -11 -63 -24 -63 -4 0 -10 8 -13 17 -6 14 -9 15 -15 4
-6 -10 -11 -5 -15 16 -7 29 -53 73 -76 73 -6 0 -9 4 -6 8 3 5 -8 6 -25 4 -17
-3 -29 0 -29 7 0 6 -16 11 -35 11 l-35 0 0 -200 0 -200 27 0 c14 0 24 -3 20
-6 -8 -9 -87 6 -87 17 0 4 7 6 15 3 20 -8 19 3 -1 24 -11 10 -13 17 -5 20 7 2
10 32 9 85 -1 46 -3 63 -5 40 -3 -29 -9 -43 -18 -43 -11 0 -15 21 -18 93 -2
50 -3 21 -3 -66 1 -86 -2 -157 -6 -157 -5 0 -8 81 -8 179 0 187 -3 211 -26
211 -8 0 -14 4 -14 9 0 5 45 10 100 10 61 1 100 -3 100 -9z m325 0 c3 5 16 9
28 9 17 -1 18 -2 5 -6 -20 -5 -25 -23 -6 -23 6 0 9 -2 6 -5 -8 -8 -68 16 -68
27 0 7 5 6 14 -1 10 -8 16 -9 21 -1z m374 -7 c0 -10 -3 -13 -5 -6 -3 7 -12 9
-20 6 -7 -3 -11 -10 -7 -17 3 -6 1 -6 -8 2 -20 18 -33 15 -18 -5 11 -15 11
-16 0 -6 -14 12 -44 6 -36 -7 3 -4 -3 -14 -12 -21 -12 -10 -14 -10 -9 -1 4 6
3 12 -2 12 -6 0 -12 -6 -15 -14 -9 -23 19 -26 42 -5 12 11 21 16 21 12 0 -11
-20 -40 -20 -30 0 5 -5 5 -11 1 -8 -4 -7 -9 2 -15 10 -6 10 -9 2 -9 -6 0 -15
5 -18 11 -4 6 -13 8 -20 5 -38 -14 -12 40 33 70 22 15 62 29 95 33 4 1 7 -7 6
-16z m84 10 c-7 -2 -19 -2 -25 0 -7 3 -2 5 12 5 14 0 19 -2 13 -5z m-353 -13
c-20 -13 -33 -13 -25 0 3 6 14 10 23 10 15 0 15 -2 2 -10z m361 -17 c13 -16
12 -17 -3 -4 -17 13 -22 21 -14 21 2 0 10 -8 17 -17z m79 -9 c0 -2 -9 0 -20 6
-11 6 -20 13 -20 16 0 2 9 0 20 -6 11 -6 20 -13 20 -16z m-471 -352 c-10 -16
-10 -15 -5 1 3 10 7 96 8 190 l2 172 3 -173 c2 -114 0 -179 -8 -190z m491 328
c0 -5 -2 -10 -4 -10 -3 0 -8 5 -11 10 -3 6 -1 10 4 10 6 0 11 -4 11 -10z
m-543 -22 c-3 -8 -6 -5 -6 6 -1 11 2 17 5 13 3 -3 4 -12 1 -19z m568 -8 c3 -5
1 -10 -4 -10 -6 0 -11 5 -11 10 0 6 2 10 4 10 3 0 8 -4 11 -10z m-344 -47
c-12 -20 -14 -14 -5 12 4 9 9 14 11 11 3 -2 0 -13 -6 -23z m-341 -35 c0 -10
-4 -18 -10 -18 -5 0 -10 -7 -10 -17 0 -9 -3 -13 -7 -10 -3 4 0 18 7 32 14 27
5 49 -10 25 -6 -8 -10 -10 -10 -4 0 5 5 15 12 22 14 14 28 -1 28 -30z m627 10
c-3 -7 -5 -2 -5 12 0 14 2 19 5 13 2 -7 2 -19 0 -25z m80 10 c-3 -8 -6 -5 -6
6 -1 11 2 17 5 13 3 -3 4 -12 1 -19z m-409 -19 c-3 -8 -7 -3 -11 10 -4 17 -3
21 5 13 5 -5 8 -16 6 -23z m-348 -33 c0 -5 -6 -3 -14 3 -11 9 -15 9 -19 -1 -3
-7 -6 3 -6 22 l-1 35 20 -25 c11 -14 20 -29 20 -34z m327 -43 c-2 -16 -4 -3
-4 27 0 30 2 43 4 28 2 -16 2 -40 0 -55z m440 15 c-2 -13 -4 -5 -4 17 -1 22 1
32 4 23 2 -10 2 -28 0 -40z m-802 -63 c-5 -34 -11 -52 -15 -44 -5 7 -4 23 1
36 5 14 9 36 9 50 0 15 3 24 6 21 3 -4 2 -32 -1 -63z m76 51 c5 3 9 -4 9 -15
0 -14 -5 -19 -15 -15 -8 4 -15 16 -14 28 0 11 3 15 6 8 2 -6 9 -10 14 -6z
m307 -40 c-7 -8 -15 -12 -17 -11 -5 6 10 25 20 25 5 0 4 -6 -3 -14z m329 -18
c-3 -8 -6 -5 -6 6 -1 11 2 17 5 13 3 -3 4 -12 1 -19z m-696 -11 c-10 -9 -11
-8 -5 6 3 10 9 15 12 12 3 -3 0 -11 -7 -18z m45 -14 c-8 -15 -15 -25 -16 -21
0 12 23 58 27 54 3 -2 -2 -17 -11 -33z m-26 -36 c0 -2 -9 -12 -19 -21 -15 -14
-21 -15 -27 -4 -4 7 -4 10 1 6 4 -4 14 -1 22 7 14 14 23 19 23 12z m-116 -38
c-4 -8 0 -9 15 -4 11 3 21 2 21 -3 0 -5 -12 -8 -27 -7 -44 3 -49 6 -28 15 27
12 27 12 19 -1z m731 -9 c-3 -5 -12 -10 -18 -10 -7 0 -6 4 3 10 19 12 23 12
15 0z m-945 -10 c0 -5 -4 -10 -9 -10 -5 0 -18 -3 -28 -6 -16 -5 -16 -4 1 10
23 18 36 20 36 6z m163 3 c-7 -2 -19 -2 -25 0 -7 3 -2 5 12 5 14 0 19 -2 13
-5z m-116 -9 c-3 -3 -12 -4 -19 -1 -8 3 -5 6 6 6 11 1 17 -2 13 -5z m840 0
c-3 -3 -12 -4 -19 -1 -8 3 -5 6 6 6 11 1 17 -2 13 -5z m-694 -11 c-7 -2 -19
-2 -25 0 -7 3 -2 5 12 5 14 0 19 -2 13 -5z m705 -10 c-10 -2 -26 -2 -35 0 -10
3 -2 5 17 5 19 0 27 -2 18 -5z"/>
<path d="M2299 3451 c-16 -16 -29 -39 -29 -50 0 -18 6 -21 45 -21 l45 0 0 50
c0 60 -16 65 -61 21z"/>
<path d="M2400 3430 l0 -50 45 0 c50 0 56 10 28 50 -45 66 -73 65 -73 0z"/>
<path d="M2270 3300 l0 -50 45 0 45 0 0 50 0 50 -45 0 -45 0 0 -50z"/>
<path d="M2400 3300 l0 -50 45 0 45 0 0 50 0 50 -45 0 -45 0 0 -50z"/>
<path d="M2728 2283 c7 -3 16 -2 19 1 4 3 -2 6 -13 5 -11 0 -14 -3 -6 -6z"/>
<path d="M3225 2390 c-4 -6 -11 -8 -16 -5 -5 3 -6 -1 -3 -10 4 -9 7 -15 8 -13
1 2 8 11 15 21 7 9 11 17 8 17 -3 0 -9 -5 -12 -10z"/>
<path d="M3151 2334 c0 -11 3 -14 6 -6 3 7 2 16 -1 19 -3 4 -6 -2 -5 -13z"/>
<path d="M3200 2341 c0 -6 4 -13 10 -16 6 -3 7 1 4 9 -7 18 -14 21 -14 7z"/>
<path d="M3186 2303 c-6 -14 -5 -15 5 -6 7 7 10 15 7 18 -3 3 -9 -2 -12 -12z"/>
<path d="M2957 2279 c7 -7 15 -10 18 -7 3 3 -2 9 -12 12 -14 6 -15 5 -6 -5z"/>
<path d="M3085 2260 c3 -5 11 -10 16 -10 6 0 7 5 4 10 -3 6 -11 10 -16 10 -6
0 -7 -4 -4 -10z"/>
<path d="M2980 2256 c0 -2 7 -7 16 -10 8 -3 12 -2 9 4 -6 10 -25 14 -25 6z"/>
<path d="M3128 2163 c7 -3 16 -2 19 1 4 3 -2 6 -13 5 -11 0 -14 -3 -6 -6z"/>
<path d="M3175 2150 c3 -5 10 -10 16 -10 5 0 9 5 9 10 0 6 -7 10 -16 10 -8 0
-12 -4 -9 -10z"/>
<path d="M2927 2117 c3 -5 -4 -6 -15 -3 -29 10 -37 -11 -10 -25 27 -15 52 -18
135 -20 34 -1 68 -6 75 -11 8 -6 -19 -7 -72 -4 -67 4 -74 3 -35 -4 89 -15 122
-12 128 10 3 13 11 18 20 14 8 -3 18 -1 21 4 7 12 -29 19 -141 28 -46 4 -81
10 -79 13 3 4 -4 7 -14 7 -10 0 -16 -4 -13 -9z m71 -16 c23 -1 42 -6 42 -11 0
-14 -102 -10 -131 5 -22 12 -21 13 11 10 19 -2 54 -3 78 -4z"/>
<path d="M2818 2043 c12 -2 32 -2 45 0 12 2 2 4 -23 4 -25 0 -35 -2 -22 -4z"/>
<path d="M2347 1403 c-4 -3 -7 -11 -7 -17 0 -6 5 -5 12 2 6 6 9 14 7 17 -3 3
-9 2 -12 -2z"/>
<path d="M2311 1316 c-7 -8 -8 -17 -3 -20 6 -3 12 3 15 14 6 24 4 25 -12 6z"/>
<path d="M2520 1690 c0 -5 5 -10 10 -10 6 0 10 5 10 10 0 6 -4 10 -10 10 -5 0
-10 -4 -10 -10z"/>
<path d="M2720 1686 c0 -2 7 -9 15 -16 9 -7 15 -8 15 -2 0 5 -7 12 -15 16 -8
3 -15 4 -15 2z"/>
<path d="M2756 1652 c-11 -18 27 -23 43 -5 15 16 15 16 -2 3 -15 -11 -20 -11
-27 -1 -4 8 -10 9 -14 3z"/>
<path d="M2808 1634 c-4 -3 -4 -13 -1 -22 4 -10 2 -13 -5 -8 -7 4 -12 2 -12
-3 0 -17 27 -13 34 6 7 17 -6 38 -16 27z"/>
<path d="M2835 1600 c-3 -5 -1 -10 4 -10 6 0 11 5 11 10 0 6 -2 10 -4 10 -3 0
-8 -4 -11 -10z"/>
</g>
</svg>
